<?xml version="1.0" standalone="no"?>
<!DOCTYPE svg PUBLIC "-//W3C//DTD SVG 20010904//EN"
 "http://www.w3.org/TR/2001/REC-SVG-20010904/DTD/svg10.dtd">
<svg version="1.0" xmlns="http://www.w3.org/2000/svg"
 width="302.000000pt" height="302.000000pt" viewBox="0 0 302.000000 302.000000"
 preserveAspectRatio="xMidYMid meet">
<metadata>
Created by potrace 1.14, written by Peter Selinger 2001-2017
</metadata>
<g transform="translate(0.000000,302.000000) scale(0.100000,-0.100000)"
fill="#000000" stroke="none">
<path d="M1932 2894 c-229 -77 -413 -309 -429 -539 l-6 -84 29 -7 c41 -10 147
10 207 40 193 95 346 344 347 564 l0 52 -37 0 c-21 0 -71 -12 -111 -26z"/>
<path d="M940 2225 c-107 -20 -225 -81 -311 -162 -277 -262 -341 -686 -178
-1178 53 -160 115 -287 204 -420 141 -212 250 -315 368 -350 70 -21 77 -20
233 26 219 66 234 69 309 69 68 0 125 -13 329 -74 109 -32 198 -35 259 -6 160
76 383 375 481 649 15 41 25 75 24 76 -2 1 -28 15 -58 31 -87 46 -199 164
-247 261 -55 109 -66 170 -61 318 6 145 32 226 106 323 42 56 151 153 184 164
17 6 -38 74 -110 138 -191 171 -482 196 -807 70 -125 -48 -140 -48 -300 4
-246 80 -288 85 -425 61z"/>
</g>
</svg>
